<?xml version="1.0" encoding="UTF-8"?>
<svg id="Background" xmlns="http://www.w3.org/2000/svg" xmlns:xlink="http://www.w3.org/1999/xlink" viewBox="0 0 1080 1920">
  <defs>
    <style>
      .cls-1 {
        fill: #e0e0bd;
      }

      .cls-2 {
        fill: #fff;
      }

      .cls-3 {
        clip-path: url(#clippath);
      }

      .cls-4 {
        fill: #82b280;
      }

      .cls-5 {
        fill: #adadad;
      }

      .cls-6 {
        fill: none;
      }

      .cls-7 {
        fill: #bfc172;
      }

      .cls-8 {
        fill: #b8ebff;
      }

      .cls-9 {
        fill: #5782b5;
      }

      .cls-10 {
        fill: #6990b7;
      }
    </style>
    <clipPath id="clippath">
      <rect class="cls-6" y="0" width="1080" height="1920"/>
    </clipPath>
  </defs>
  <g class="cls-3">
    <rect class="cls-8" x="0" y="0" width="1080" height="1628"/>
    <path class="cls-1" d="m1080,1153c-299.67,8.67-599.33,17.33-899,26C95.68,808.62,10.36,438.24-74.95,67.86L209.61-40.71c290.13,397.9,580.26,795.81,870.39,1193.71Z"/>
    <rect class="cls-9" x="0" y="1153" width="1080" height="524"/>
    <path class="cls-10" d="m175,1153c301.02.1,602.03.19,903.05.29.65,174.57,1.3,349.14,1.95,523.71-170.67.67-341.33,1.33-512,2-131-175.33-262-350.67-393-526Z"/>
    <rect class="cls-4" x="0" y="1677" width="1080" height="243"/>
    <ellipse class="cls-7" cx="95" cy="103.5" rx="176" ry="183.5"/>
    <g>
      <ellipse class="cls-5" cx="917.11" cy="526.75" rx="36.15" ry="30.93"/>
      <ellipse class="cls-5" cx="947.89" cy="495.67" rx="36.15" ry="30.93"/>
      <ellipse class="cls-5" cx="978.38" cy="475.93" rx="36.15" ry="30.93"/>
      <ellipse class="cls-5" cx="1009.45" cy="507" rx="36.15" ry="30.93"/>
      <ellipse class="cls-5" cx="973.15" cy="538.07" rx="36.15" ry="30.93"/>
      <ellipse class="cls-5" cx="1024.85" cy="526.75" rx="36.15" ry="30.93"/>
    </g>
    <g>
      <ellipse class="cls-2" cx="715.3" cy="327.92" rx="68.52" ry="58.61"/>
      <ellipse class="cls-2" cx="773.64" cy="269.04" rx="68.52" ry="58.61"/>
      <ellipse class="cls-2" cx="831.43" cy="231.61" rx="68.52" ry="58.61"/>
      <ellipse class="cls-2" cx="890.31" cy="290.5" rx="68.52" ry="58.61"/>
      <ellipse class="cls-2" cx="821.52" cy="349.39" rx="68.52" ry="58.61"/>
      <ellipse class="cls-2" cx="919.48" cy="327.92" rx="68.52" ry="58.61"/>
    </g>
  </g>
</svg>