<?xml version="1.0" encoding="UTF-8"?>
<svg id="Bucket" xmlns="http://www.w3.org/2000/svg" viewBox="0 0 549 710">
  <defs>
    <style>
      .cls-1 {
        fill: none;
        stroke: #4c4c4c;
        stroke-miterlimit: 10;
        stroke-width: 10px;
      }

      .cls-2 {
        fill: #282828;
      }

      .cls-3 {
        fill: #3a3a3a;
      }

      .cls-4 {
        fill: #636363;
      }
    </style>
  </defs>
  <path class="cls-4" d="m469.41,604.97c-50.54,26.16-113.13,67.18-180.74,67.18-59.03,0-143.88-28.54-199.17-67.18-17.84-149.82-35.67-299.64-53.51-449.47h474.44l-41.02,449.47Z"/>
  <path class="cls-1" d="m40.16,188.79c14.1,31.8,40.98,81.86,90.37,129.01,40.2,38.38,86.96,83.01,159.33,87.4,79.18,4.8,135.75-42.09,146.26-51.13,82.34-70.89,75.3-177.26,74.32-189.06"/>
  <ellipse class="cls-2" cx="273.22" cy="165.31" rx="237.22" ry="129.31"/>
  <path class="cls-3" d="m256.57,380.23c-6.84,5.14-8.88,18.73-4.16,27.94,16.15,31.56,109.94,8.69,149.23-9.51,10.97-5.08,19.84-10.79,20.21-18.43.41-8.29-9.27-17.06-19.03-19.03-11.88-2.39-17.97,6.5-35.08,14.86-22.12,10.81-49.59,14.35-71.94,10.7-21.47-3.51-31.27-12.52-39.24-6.54Z"/>
</svg>