<?xml version="1.0" encoding="UTF-8"?>
<svg id="Can" xmlns="http://www.w3.org/2000/svg" viewBox="0 0 187 280">
  <defs>
    <style>
      .cls-1 {
        fill: none;
        stroke: #686865;
        stroke-miterlimit: 10;
      }

      .cls-2 {
        fill: #a3a3a3;
      }

      .cls-3 {
        fill: #aaaaa9;
      }
    </style>
  </defs>
  <polygon class="cls-3" points="74.4 43.53 69.36 36.17 74.4 36.17 74.4 28.69 80.07 32.19 80.07 27.15 83.85 27.55 87.63 24 90.15 27.24 94.9 27.15 92.67 30.93 74.4 43.53"/>
  <polygon class="cls-3" points="96.76 31.41 100.33 27.15 102.03 31.41 108.13 31.41 112.46 35.15 118.29 35.15 118.29 40.24 129.21 40.24 125.47 44.17 132.98 46.68 132.98 52.13 142.75 56.55 142.75 61.1 148.1 64.32 147.67 67.25 153.14 69.99 153.14 75.19 157.55 78.8 154.29 83.74 163.52 87.47 156.92 95.18 165.12 95.18 164.29 101.04 167 105.26 162.17 108.02 96.76 31.41"/>
  <path class="cls-2" d="m52.95,82.03L15.5,209.52c5.21,7.07,18.61,23.25,42.21,32.13,30.98,11.66,58.15,2.7,65.51,0l40.31-126.31-110.58-33.31Z"/>
  <path d="m163.31,116.2c-3.55,11.47-31.13,13.11-61.61,3.68-30.48-9.44-52.3-26.38-48.75-37.84,3.55-11.47,31.13-13.11,61.61-3.68,30.48,9.44,52.3,26.38,48.75,37.84Z"/>
  <polygon class="cls-3" points="74.4 43.53 69.36 46.05 74.4 48.74 71.46 55.87 76.89 55.87 73.13 61.99 76.89 66.2 76.89 71.16 81.43 74.97 81.43 82.03 85.91 82.03 85.91 87.13 89.51 87.13 89.51 93.04 94.41 93.04 94.41 101.4 99.97 99.11 101.49 104.63 105.68 104.63 108.13 113.29 113.11 110.87 115.35 117.23 119.82 115.66 123.53 121.64 127.85 121.64 135.82 123.83 74.4 43.53"/>
  <path class="cls-3" d="m139.45,57.36c23.07,25.2,32.3,54.29,20.61,64.99-11.69,10.7-39.86-1.05-62.93-26.25-23.07-25.2-32.3-54.29-20.61-64.99,11.69-10.7,39.86,1.05,62.93,26.25Z"/>
  <ellipse class="cls-1" cx="120.37" cy="76.56" rx="24.04" ry="51.83" transform="translate(-20.11 101.38) rotate(-42.48)"/>
  <ellipse class="cls-1" cx="120.53" cy="76.58" rx="16.8" ry="36.22" transform="translate(-20.08 101.49) rotate(-42.48)"/>
  <path class="cls-1" d="m43.22,115.66c6.18,8.2,17.05,20.29,34.02,29.61,31.59,17.36,62.63,13.21,73.07,11.34"/>
  <path class="cls-1" d="m142.75,179.28c-10.41,1.63-26.6,2.75-45.36-1.89-33.44-8.28-53.62-29.6-61.1-38.43"/>
  <path class="cls-1" d="m135.82,202.59c-10.41,1.63-26.6,2.75-45.36-1.89-33.44-8.28-53.62-29.6-61.1-38.43"/>
  <polygon points="56.37 93.76 56.37 101.62 61.43 99.11 65.58 104.63 69.36 106.15 73.77 111.56 78.75 110.59 81.33 117.23 86.78 114.38 90.15 119.74 96.76 118.25 98.97 121.01 102.59 121.01 106.67 123.83 109.92 122.17 112.2 128.57 115.05 123.83 120.53 127.22 123.7 124.89 129.78 128.57 134.24 125.42 123.53 122.27 56.37 93.76"/>
  <polygon points="52.57 83.68 51.72 88.25 53.24 88.25 52.57 92 55.39 92.4 52.57 83.68"/>
</svg>