<?xml version="1.0" encoding="UTF-8"?>
<svg id="Purple_fish" data-name="Purple fish" xmlns="http://www.w3.org/2000/svg" viewBox="0 0 337 253">
  <defs>
    <style>
      .cls-1 {
        fill: #fff;
      }

      .cls-2 {
        fill: #4e0d93;
      }

      .cls-3 {
        stroke: #000;
        stroke-miterlimit: 10;
      }

      .cls-4 {
        fill: #5c0da0;
      }

      .cls-5 {
        fill: #712abc;
      }
    </style>
  </defs>
  <path class="cls-5" d="m114.5,68.5c.02-5.46,3.62-9.36,9-15,7.22-7.58,19.42-20.38,38-20,3.19.06,15.9.51,26,10,10.47,9.83,11.38,23.03,12,32,.76,10.91,1.5,21.73-5,28-14.88,14.36-53.33-8.96-60-13-8.82-5.35-20.03-12.34-20-22Z"/>
  <path class="cls-2" d="m75.5,149.5c-6.81,4.79-7.63,15.24-8,20-.93,11.9,3.57,26.82,15,34,20.24,12.72,52.29-5.05,54-20,2.2-19.21-44.32-45.73-61-34Z"/>
  <path class="cls-4" d="m201,124c2.09-7.99,8.39-14.66,21-28,10.64-11.26,15.26-13.74,18-15,4.27-1.96,16.26-7.47,24-2,8.98,6.35,6.29,23.3,6,25-1.99,11.67-8.58,14.54-7,23,.91,4.85,3.18,4.48,8,14,3.62,7.15,6.05,11.94,6,18-.07,7.68-4.12,17.62-12,21-3.56,1.53-7.72,1.63-22-4-21.7-8.55-32.55-12.83-38-22-8.07-13.57-4.42-28.39-4-30Z"/>
  <path class="cls-4" d="m65,117c7.01-28.99,33.26-41.81,38-44,30.87-14.28,76.8-6.87,96,26,11.03,18.88,12.9,45.57,0,66-23.51,37.23-78.45,25.8-82,25-8.92-2-34.29-7.68-47-31-9.95-18.27-6.3-36.64-5-42Z"/>
  <path class="cls-4" d="m153.5,147.5c14.16-9.75,39.58-.97,51,16,1.6,2.38,11.51,17.67,5,34-6.65,16.7-27.18,26.23-44,21-21.65-6.73-25.74-34.34-23-50,.86-4.91,2.67-15.26,11-21Z"/>
  <path class="cls-1" d="m69.96,72.87c-9.33-2.27-17,2.79-19.05,4.14-1.6,1.06-11.64,7.93-12.42,20.71-.67,11.06,6.09,18.45,7.45,19.88,2.31,2.42,8.67,8.16,18.22,8.28,8.98.12,17.09-4.78,21.54-11.6,7.39-11.34,3.02-25.47-3.31-33.13-1.58-1.92-5.58-6.62-12.42-8.28Z"/>
  <path class="cls-1" d="m124.63,81.98c-9.05-3.9-20.5-3.3-28.99,3.31-11.33,8.82-13.11,25.04-7.45,36.44.78,1.57,6.18,12.01,18.22,14.91,11.58,2.79,22.76-2.97,28.99-10.77,1.34-1.67,9.08-11.76,5.8-24.85-3.28-13.09-14.87-18.32-16.57-19.05Z"/>
  <path class="cls-5" d="m92.5,147.5c.3,7.55-4.94,15.46-13,17-8.29,1.58-15.12-4.41-18-10-2.83-5.49-3.84-14.46,2-20,5.83-5.53,14.71-4.06,20-1,.86.5,8.65,5.17,9,14Z"/>
  <circle cx="76" cy="146" r="11.5"/>
  <circle class="cls-3" cx="71.21" cy="108.07" r="7.87"/>
  <circle class="cls-3" cx="100.2" cy="113.87" r="7.87"/>
</svg>