<?xml version="1.0" encoding="UTF-8"?>
<svg id="Red_fish" data-name="Red fish" xmlns="http://www.w3.org/2000/svg" viewBox="0 0 358 277">
  <defs>
    <style>
      .cls-1 {
        fill: #fff;
      }

      .cls-2 {
        fill: #681f1f;
      }

      .cls-3 {
        fill: #892222;
      }

      .cls-4 {
        fill: #af3535;
      }

      .cls-5 {
        fill: #ad2828;
      }

      .cls-6 {
        fill: #c63030;
      }

      .cls-7 {
        fill: #aa3d3d;
      }
    </style>
  </defs>
  <path class="cls-6" d="m210.03,93.07c14.46,1.14,20.28,4.09,24.69,0,7.81-7.25,2.64-28.71-7.05-42.33-23.91-33.59-83.75-31.21-87.3-21.16-2.12,6,17.03,11.33,20.28,29.98,3.08,17.64-11.37,28.15-6.17,35.27,5.56,7.62,22.12-4.4,55.55-1.76Z"/>
  <path class="cls-2" d="m48.66,72.79c3.9,5.23,10.2,13.39,18.52,22.93,18.18,20.84,24.82,23.96,24.69,31.74-.14,8.44-11.56,16.32-34.39,31.74-21.49,14.52-32.31,21.71-36.15,18.52-4.71-3.92,4.37-19.2,13.23-44.97,8.21-23.9,12.1-44.8,14.11-59.96Z"/>
  <path class="cls-3" d="m271.08,185.34c6.09,9.29-5.99,25.76-8.93,29.77-15.57,21.22-43.43,30-46.88,25.3-1.86-2.54,5-6.81,11.16-21.58,7.7-18.48,3.07-26.46,10.42-33.49,9.04-8.64,28.61-8.58,34.23,0Z"/>
  <path class="cls-5" d="m325.1,119.08c-9.96-37.64-95.76-39.48-104.93-39.68-57-1.22-136.42,18.79-140.2,53.79-3.05,28.15,44.06,54.82,67.02,64.37,45.77,19.04,105.7,15.87,145.5-18.52,6.69-5.78,39.47-34.1,32.63-59.96Z"/>
  <path class="cls-4" d="m255.88,186.54c7.22,11.01-7.1,30.52-10.58,35.27-15.09,20.57-43.5,38.48-55.55,29.98-9.02-6.36-6.08-25.54-3.09-34.83,6.07-18.86,22.18-27.55,28.66-30.42,12.04-5.34,34.11-9.84,40.56,0Z"/>
  <polygon points="285.89 108.73 239 100.89 236.95 76.65 284.36 90.74 285.89 108.73"/>
  <polygon points="298.76 102.87 335.1 72.23 324.52 50.33 290.91 86.62 298.76 102.87"/>
  <circle class="cls-1" cx="283.64" cy="132.87" r="20.35"/>
  <circle class="cls-1" cx="317.06" cy="121.43" r="20.35"/>
  <circle cx="285.02" cy="126.92" r="5.35"/>
  <circle cx="311.85" cy="117.04" r="5.35"/>
  <path class="cls-7" d="m302.46,148.26c.81-.42,4.48-2.26,9.51-1.88,10.29.77,20.08,10.32,18.61,16.69-.9,3.9-5.8,5.67-14.31,8.74-10.41,3.75-19.48,7.02-23.39,3.06-4.99-5.07-.77-21.2,9.56-26.61Z"/>
  <path d="m324.98,160.32c-.2,2.19-3.02,3.76-5.8,5.3-1.24.69-3.6,1.85-9.07,2.84-6.8,1.24-10.2,1.86-11.27.53-2.43-3.02,2.89-15.79,11.98-17.14,6.85-1.02,14.5,4.65,14.15,8.47Z"/>
  <polygon class="cls-1" points="301.67 157.9 303.15 156.13 303.06 160.52 301.67 157.9"/>
  <path class="cls-1" d="m320.69,154.35c-.46-.29-.92-.58-1.39-.86.17,1.46.34,2.93.5,4.39.29-1.18.59-2.35.88-3.53Z"/>
</svg>